# xmcd
#
# Track frame offsets: 
#        150
#        22057
#        40245
#        66252
#        88230
#        110540
#        127704
#        153357
#        171357
#        194805
#        228772
#        247485
#        270630
#        293770
#        318847
#
# Disc length: 4604 seconds
#
# Revision: 6
# Processed by: cddbd v1.5.2PL0 Copyright (c) Steve Scherf et al.
# Submitted via: ExactAudioCopyFreeDBPlugin 1.0
#
DISCID=da11fa0f
DTITLE=Kenneth ''Babyface'' Edmonds - a collection of his greatest hit
DTITLE=s (Japanese Ver.)
DYEAR=2000
DGENRE=R&B
TTITLE0=For The Cool In You
TTITLE1=It's No Crime
TTITLE2=Whip Appeal
TTITLE3=Never Keeping Secrets
TTITLE4=Every Time I Close My Eyes
TTITLE5=When Can I See You
TTITLE6=Reason For Breathing
TTITLE7=This Is For The Lover In You
TTITLE8=How Come, How Long
TTITLE9=Change The World (feat. Eric Clapton)
TTITLE10=I Love You Babe
TTITLE11=Soon As I Get Home
TTITLE12=Where Will You Go
TTITLE13=When Men Grow Old
TTITLE14=Two Occasions (Live)
EXTD=
EXTT0=
EXTT1=
EXTT2=
EXTT3=
EXTT4=
EXTT5=
EXTT6=
EXTT7=
EXTT8=
EXTT9=
EXTT10=
EXTT11=
EXTT12=
EXTT13=
EXTT14=
PLAYORDER=
